<svg width="604" height="195" viewBox="0 0 604 195" fill="none" xmlns="http://www.w3.org/2000/svg">
<rect width="195" height="194.572" rx="10" fill="url(#paint0_linear)"/>
<path d="M54.1033 192.396H81.6295V141.828L108.89 141.828C144.745 141.828 171.215 118.733 171.215 86.0167C171.215 53.2999 144.745 30.2057 108.89 30.2057L54.1033 30.2057V192.396ZM81.6295 109.351V62.6819L105.04 62.6819C122.606 62.6819 134.638 71.8234 134.638 86.0167C134.638 100.21 122.606 109.351 105.04 109.351L81.6295 109.351Z" fill="white"/>
<path d="M48.8996 195L84.2396 195V62.6888V30.2057L0 30.2057L3.19063e-05 62.6888H48.8996L48.8996 195Z" fill="white"/>
<path d="M217.208 130H233.795V109.145H248.151C262.798 109.145 273.468 99.736 273.468 86.253C273.468 72.77 262.798 63.361 248.151 63.361H217.208V130ZM233.795 94.013V78.493H246.599C252.322 78.493 256.396 81.597 256.396 86.253C256.396 90.909 252.322 94.013 246.599 94.013H233.795ZM336.037 130L319.935 107.108C328.568 103.616 334.097 95.953 334.097 86.253C334.097 72.77 323.427 63.361 308.78 63.361H277.837V130H294.424V109.145H302.572L317.219 130H336.037ZM294.424 78.493H307.228C312.951 78.493 317.025 81.597 317.025 86.253C317.025 90.909 312.951 94.013 307.228 94.013H294.424V78.493ZM374.01 131.164C393.507 131.164 409.9 115.353 409.9 96.632C409.9 77.911 393.507 62.197 374.01 62.197C354.61 62.197 338.217 77.911 338.217 96.632C338.217 115.353 354.61 131.164 374.01 131.164ZM374.01 116.129C363.825 116.129 355.192 107.205 355.192 96.632C355.192 86.156 363.825 77.232 374.01 77.232C384.195 77.232 392.828 86.156 392.828 96.632C392.828 107.205 384.195 116.129 374.01 116.129ZM432.45 130H449.037V78.202H469.213V63.361H412.177V78.202H432.45V130ZM532.322 130L516.22 107.108C524.853 103.616 530.382 95.953 530.382 86.253C530.382 72.77 519.712 63.361 505.065 63.361H474.122V130H490.709V109.145H498.857L513.504 130H532.322ZM490.709 78.493H503.513C509.236 78.493 513.31 81.597 513.31 86.253C513.31 90.909 509.236 94.013 503.513 94.013H490.709V78.493ZM584.263 130H602.887L576.503 63.361H557.879L531.495 130H550.119L553.999 120.3H580.383L584.263 130ZM559.14 107.302L567.191 86.835L575.242 107.302H559.14Z" fill="black"/>
<defs>
<linearGradient id="paint0_linear" x1="195" y1="194.572" x2="-24.3665" y2="28.3104" gradientUnits="userSpaceOnUse">
<stop offset="0.203125" stop-color="#1589CB"/>
<stop offset="1" stop-color="#2DC0CA"/>
</linearGradient>
</defs>
</svg>
